<svg fill="none" height="220" viewBox="0 0 836 220" width="836" xmlns="http://www.w3.org/2000/svg"><g fill="#fff"><path d="m108.54 86.82c-13.97-12.49-31.99-19.37-50.72-19.37-.08 0-.17 0-.25.01-1.53.12-2.67 1.43-2.57 2.95.06.82.46 1.52 1.06 1.99.48.37 1.09.58 1.75.57 17.38 0 34.09 6.38 47.05 17.96.53.47 1.18.7 1.84.7.76 0 1.51-.31 2.06-.92 1.01-1.14.92-2.88-.22-3.89z"/><path d="m106.71 109.65c-.84 0-1.66-.38-2.2-1.1-11.1499-14.82-28.1699-23.32-46.6899-23.32-1.52 0-2.76-1.23-2.76-2.76s1.23-2.76 2.76-2.76c20.27 0 38.89 9.3 51.0899 25.52.92 1.22.67 2.94-.54 3.86-.5.37-1.08.55-1.66.55z"/><path d="m106.7 76.02c-.54 0-1.09-.16-1.57-.49-13.9299-9.7-30.2899-14.83-47.3099-14.83-1.53 0-2.76-1.23-2.76-2.75s1.23-2.76 2.76-2.76c18.15 0 35.6 5.47 50.4599 15.81 1.25.87 1.56 2.59.69 3.84-.54.77-1.39 1.18-2.26 1.18z"/><path d="m106.71 120.42c-1.52 0-2.76-1.23-2.76-2.76v-59.71c0-1.52 1.23-2.76 2.76-2.76s2.76 1.23 2.76 2.76v59.72c0 1.52-1.23 2.76-2.76 2.76z"/><path d="m241.28 76.02c-.54 0-1.09-.16-1.57-.49-13.93-9.7-30.29-14.82-47.31-14.82s-33.39 5.13-47.32 14.82c-1.25.87-2.97.56-3.84-.69s-.56-2.97.69-3.84c14.85-10.34 32.3-15.81 50.46-15.81s35.61 5.47 50.47 15.81c1.25.87 1.56 2.59.69 3.84-.54.77-1.39 1.18-2.26 1.18z"/><path d="m241.28 109.65c-.84 0-1.66-.38-2.2-1.1-11.15-14.82-28.17-23.32-46.69-23.32s-35.53 8.5-46.69 23.32c-.92 1.22-2.64 1.46-3.86.54s-1.46-2.64-.54-3.86c12.2-16.22 30.83-25.52 51.09-25.52s38.89 9.3 51.09 25.52c.92 1.22.67 2.94-.54 3.86-.5.37-1.08.55-1.66.55z"/><path d="m241.28 91.63c-.65 0-1.31-.23-1.84-.7-12.96-11.58-29.67-17.96-47.05-17.96s-34.09 6.38-47.05 17.96c-1.13 1.01-2.88.92-3.89-.22s-.92-2.88.22-3.89c13.97-12.49 31.99-19.36 50.73-19.36s36.75 6.88 50.73 19.36c1.13 1.01 1.23 2.76.22 3.89-.54.61-1.3.92-2.06.92z"/><path d="m278.07 76.02c-.87 0-1.73-.41-2.26-1.18-.87-1.25-.56-2.97.69-3.84 14.85-10.34 32.3-15.81 50.46-15.81 1.52 0 2.76 1.23 2.76 2.76s-1.23 2.76-2.76 2.76c-17.02 0-33.39 5.13-47.31 14.82-.48.33-1.03.49-1.57.49z"/><path d="m278.07 109.65c-.58 0-1.16-.18-1.66-.55-1.22-.92-1.46-2.64-.54-3.86 12.2-16.22 30.83-25.52 51.09-25.52 1.52 0 2.76 1.23 2.76 2.76s-1.23 2.76-2.76 2.76c-18.52 0-35.53 8.5-46.69 23.32-.54.72-1.37 1.1-2.2 1.1z"/><path d="m278.07 91.63c-.76 0-1.51-.31-2.06-.92-1.01-1.14-.92-2.88.22-3.89 13.97-12.49 31.99-19.36 50.73-19.36 1.52 0 2.76 1.23 2.76 2.76s-1.23 2.76-2.76 2.76c-17.38 0-34.09 6.38-47.05 17.96-.53.47-1.18.7-1.84.7z"/><path d="m265.81 135.74c-1.52 0-2.76-1.23-2.76-2.76v-75.03c0-1.52 1.23-2.76 2.76-2.76s2.76 1.23 2.76 2.76v75.04c0 1.52-1.23 2.76-2.76 2.76z"/><path d="m253.54 147.56c-1.52 0-2.76-1.23-2.76-2.76v-86.85c0-1.52 1.23-2.76 2.76-2.76s2.76 1.23 2.76 2.76v86.86c0 1.52-1.23 2.76-2.76 2.76z"/><path d="m241.28 164.79c-1.52 0-2.76-1.23-2.76-2.76v-104.08c0-1.52 1.23-2.76 2.76-2.76s2.76 1.23 2.76 2.76v104.09c0 1.52-1.23 2.76-2.76 2.76z"/><path d="m143.5 164.79c-1.52 0-2.76-1.23-2.76-2.76v-104.08c0-1.52 1.23-2.76 2.76-2.76s2.76 1.23 2.76 2.76v104.09c0 1.52-1.23 2.76-2.76 2.76z"/><path d="m131.23 149.31c-1.52 0-2.76-1.23-2.76-2.76v-88.6c0-1.52 1.23-2.76 2.76-2.76s2.76 1.23 2.76 2.76v88.61c0 1.52-1.23 2.76-2.76 2.76z"/><path d="m118.97 135.74c-1.52 0-2.76-1.23-2.76-2.76v-75.03c0-1.52 1.23-2.76 2.76-2.76s2.76 1.23 2.76 2.76v75.04c0 1.52-1.23 2.76-2.76 2.76z"/><path d="m278.07 120.42c-1.52 0-2.76-1.23-2.76-2.76v-59.71c0-1.52 1.23-2.76 2.76-2.76s2.76 1.23 2.76 2.76v59.72c0 1.52-1.23 2.76-2.76 2.76z"/><path d="m326.96 60.7h-269.1399c-1.53 0-2.76-1.23-2.76-2.75s1.23-2.76 2.76-2.76h269.1399c1.52 0 2.76 1.23 2.76 2.76s-1.23 2.76-2.76 2.76z"/><path d="m440.15 164.79c-1.93 0-3.71-.32-5.35-.96s-3.05-1.54-4.25-2.72-2.13-2.57-2.8-4.17-1.01-3.36-1.01-5.28.34-3.68 1.01-5.28 1.61-2.99 2.8-4.17c1.2-1.18 2.61-2.08 4.25-2.72s3.42-.96 5.35-.96c2.25 0 4.27.41 6.04 1.23s3.26 2 4.44 3.53l-4.39 4.11c-.79-.96-1.65-1.69-2.59-2.2s-1.99-.76-3.15-.76c-1 0-1.92.17-2.75.5-.84.34-1.55.82-2.14 1.46s-1.06 1.4-1.39 2.29c-.34.89-.5 1.88-.5 2.96s.17 2.07.5 2.96c.34.89.8 1.65 1.39 2.29s1.31 1.12 2.14 1.46c.84.34 1.75.5 2.75.5 1.16 0 2.21-.25 3.15-.76.94-.5 1.8-1.24 2.59-2.2l4.39 4.11c-1.18 1.51-2.66 2.69-4.44 3.52s-3.79 1.24-6.04 1.24z"/><path d="m468.95 164.79c-1.95 0-3.75-.32-5.4-.97s-3.08-1.57-4.3-2.76-2.17-2.58-2.84-4.17-1.01-3.33-1.01-5.23.34-3.64 1.01-5.23 1.62-2.98 2.84-4.17 2.65-2.11 4.3-2.76 3.45-.97 5.4-.97 3.78.33 5.42.97c1.64.65 3.06 1.57 4.27 2.76s2.15 2.58 2.84 4.17 1.03 3.33 1.03 5.23-.34 3.65-1.03 5.25-1.63 2.99-2.84 4.17-2.63 2.09-4.27 2.74-3.44.97-5.42.97zm0-5.91c.93 0 1.79-.17 2.59-.5.8-.34 1.5-.82 2.09-1.46s1.06-1.4 1.39-2.29c.34-.89.5-1.88.5-2.96s-.17-2.1-.5-2.98c-.34-.88-.8-1.63-1.39-2.27s-1.29-1.12-2.09-1.46-1.67-.5-2.59-.5-1.79.17-2.59.5c-.8.34-1.5.82-2.09 1.46s-1.06 1.39-1.39 2.27c-.34.88-.5 1.87-.5 2.98s.17 2.07.5 2.96c.34.89.8 1.65 1.39 2.29s1.29 1.12 2.09 1.46 1.67.5 2.59.5z"/><path d="m489.6 164.29v-25.25h5.68l13.44 16.81h-2.68v-16.81h6.76v25.25h-5.68l-13.44-16.81h2.68v16.81z"/><path d="m541.66 164.29h-6.9v-25.25h19.12v5.52h-12.22zm-.48-14.18h11.25v5.52h-11.25z"/><path d="m571.86 164.79c-3.6 0-6.41-1.02-8.43-3.07-2.02-2.04-3.03-4.94-3.03-8.69v-13.99h6.9v13.78c0 2.16.41 3.71 1.24 4.65s1.96 1.41 3.4 1.41 2.57-.47 3.38-1.41 1.22-2.49 1.22-4.65v-13.78h6.79v13.99c0 3.75-1.01 6.65-3.03 8.69s-4.83 3.07-8.43 3.07z"/><path d="m596.27 164.29v-19.58h-7.49v-5.66h21.83v5.66h-7.45v19.58z"/><path d="m627.54 164.79c-3.6 0-6.41-1.02-8.43-3.07-2.02-2.04-3.03-4.94-3.03-8.69v-13.99h6.9v13.78c0 2.16.41 3.71 1.24 4.65s1.96 1.41 3.4 1.41 2.57-.47 3.38-1.41 1.22-2.49 1.22-4.65v-13.78h6.79v13.99c0 3.75-1.01 6.65-3.03 8.69s-4.83 3.07-8.43 3.07z"/><path d="m647.15 164.29v-25.25h11.14c2.23 0 4.15.37 5.76 1.12s2.86 1.82 3.74 3.23 1.32 3.07 1.32 4.99-.44 3.54-1.32 4.92-2.13 2.44-3.74 3.17-3.53 1.1-5.76 1.1h-7.31l3.06-2.99v9.7h-6.9zm6.89-8.95-3.06-3.28h6.9c1.44 0 2.51-.32 3.22-.97s1.06-1.55 1.06-2.71-.35-2.09-1.06-2.74-1.78-.97-3.22-.97h-6.9l3.06-3.28v13.96zm8.19 8.95-6.06-9.2h7.35l6.09 9.2z"/><path d="m688.69 164.79c-1.95 0-3.75-.32-5.4-.97s-3.08-1.57-4.3-2.76-2.17-2.58-2.84-4.17-1.01-3.33-1.01-5.23.34-3.64 1.01-5.23 1.62-2.98 2.84-4.17 2.65-2.11 4.3-2.76 3.45-.97 5.4-.97 3.78.33 5.42.97c1.64.65 3.06 1.57 4.27 2.76s2.15 2.58 2.84 4.17 1.03 3.33 1.03 5.23-.34 3.65-1.03 5.25-1.63 2.99-2.84 4.17-2.63 2.09-4.27 2.74-3.44.97-5.42.97zm0-5.91c.93 0 1.79-.17 2.59-.5.8-.34 1.5-.82 2.09-1.46s1.06-1.4 1.39-2.29c.34-.89.5-1.88.5-2.96s-.17-2.1-.5-2.98c-.34-.88-.8-1.63-1.39-2.27s-1.29-1.12-2.09-1.46-1.67-.5-2.59-.5-1.79.17-2.59.5c-.8.34-1.5.82-2.09 1.46s-1.06 1.39-1.39 2.27c-.34.88-.5 1.87-.5 2.98s.17 2.07.5 2.96c.34.89.8 1.65 1.39 2.29s1.29 1.12 2.09 1.46 1.67.5 2.59.5z"/><path d="m580.66 58.53c0 4.14-3.36 7.5-7.5 7.5h-17.46v-2.07c0-4.95 4.01-8.96 8.96-8.96h16z"/><path d="m348.2 95.57c0-15.72 11.92-27.24 28.11-27.24s28.11 11.53 28.11 27.24-11.92 27.24-28.11 27.24-28.11-11.53-28.11-27.24zm41.77 0c0-9.06-6-14.97-13.66-14.97s-13.66 5.91-13.66 14.97 6 14.97 13.66 14.97 13.66-5.91 13.66-14.97z"/><path d="m406.2 98.41v-29.04h14.31v28.59c0 8.98 3.61 12.57 9.61 12.57s9.54-3.59 9.54-12.57v-28.59h14.09v29.04c0 15.64-8.82 24.4-23.77 24.4s-23.77-8.76-23.77-24.4z"/><path d="m497.05 110.31v11.45h-40.61v-52.39h39.67v11.45h-25.51v8.83h22.47v11.08h-22.47v9.58z"/><path d="m521.81 107.84h-7.8v13.92h-14.31v-52.39h23.12c13.8 0 22.47 7.41 22.47 19.38 0 7.71-3.61 13.4-9.9 16.54l10.91 16.47h-15.32l-9.18-13.92zm.15-26.79h-7.95v15.34h7.95c5.93 0 8.89-2.84 8.89-7.63s-2.96-7.71-8.89-7.71z"/><path d="m588.48 110.31v11.45h-40.61v-52.39h39.67v11.45h-25.51v8.83h22.47v11.08h-22.47v9.58z"/><path d="m600.21 81.12h-47.23v-11.75h77.01v11.75h-15.46v40.64h-14.31v-40.64z"/><path d="m658 111.58h-21.39l-3.97 10.18h-14.6l22.33-52.39h14.09l22.4 52.39h-14.89l-3.98-10.18zm-4.19-10.92-6.5-16.76-6.5 16.76h13.01z"/><path d="m699.42 107.84h-7.8v13.92h-14.31v-52.39h23.12c13.8 0 22.47 7.41 22.47 19.38 0 7.71-3.61 13.4-9.9 16.54l10.91 16.47h-15.32l-9.18-13.92zm.14-26.79h-7.95v15.34h7.95c5.93 0 8.89-2.84 8.89-7.63s-2.96-7.71-8.89-7.71z"/><path d="m724.57 95.57c0-15.72 11.92-27.24 28.11-27.24s28.11 11.53 28.11 27.24-11.92 27.24-28.11 27.24-28.11-11.53-28.11-27.24zm41.76 0c0-9.06-6-14.97-13.66-14.97s-13.66 5.91-13.66 14.97 6 14.97 13.66 14.97 13.66-5.91 13.66-14.97z"/><path d="m404.42 128.85c0-4.18-3.39-7.57-7.57-7.57h-23.26v2.09c0 5 4.05 9.05 9.05 9.05h21.78v-3.56z"/></g></svg>